<svg xmlns="http://www.w3.org/2000/svg" viewBox="0 0 32 32">
  <rect width="32" height="32" rx="6" fill="#1B5E3F"/>
  <path fill="#154F35" d="M8 7l1.1 3.4H13l-2.7 2 1 3.4L8 13.6 4.7 15.8l1-3.4-2.7-2h3.9L8 7zm16 0l1.1 3.4H29l-2.7 2 1 3.4L24 13.6l-3.3 2.2 1-3.4-2.7-2h3.9L24 7zM16 14l1.5 4.6H22l-3.6 2.6 1.4 4.5L16 22.8l-3.8 2.9 1.4-4.5-3.6-2.6h4.5L16 14z"/>
  <path fill="#2E8B57" stroke="#111" stroke-width="0.4" d="M10 22c0-5 2.5-9 6-11 1.5 4 4 7 4 11 0 1.5-1 2.5-2.5 2.5h-5C11 24.5 10 23.5 10 22z"/>
  <rect x="10" y="21.2" width="10" height="2.6" rx="0.4" fill="#C0392B" stroke="#111" stroke-width="0.3"/>
</svg>
